# xmcd
#
# Track frame offsets:
#	150
#	34810
#	65382
#	106810
#	140917
#	176910
#	218669
#	253548
#
# Disc length: 3871 seconds
#
# Revision: 0
# Processed by: cddbd v1.4PL0 Copyright (c) Steve Scherf et al.
# Submitted via: audiograbber 1.82.02
#
DISCID=740f1d08
DTITLE=Snooky Pryor - Mojo Ramble (Live In Concert)
DYEAR=2003
DGENRE=Blues
TTITLE0=Dirty Rat (Live)
TTITLE1=Shake My Hand (Live)
TTITLE2=Come On Down To My House (Live)
TTITLE3=It Hurts Me Too (Live)
TTITLE4=I Learnt My Lesson Well (Live)
TTITLE5=Let Your Hari Down, Woman (Live)
TTITLE6=Headed South (Live)
TTITLE7=Where Did You Learn To Shake It Like That? (Live)
EXTD=
EXTT0=
EXTT1=
EXTT2=
EXTT3=
EXTT4=
EXTT5=
EXTT6=
EXTT7=
PLAYORDER=
